<svg width="596" height="403" viewBox="0 0 596 403" fill="none" xmlns="http://www.w3.org/2000/svg">
<path d="M569.528 27.3657C569.533 27.5267 569.526 27.7743 569.477 28.1346C569.34 29.1456 568.944 30.5709 568.238 32.4166C566.835 36.0852 564.391 40.9391 561.15 46.5807C554.682 57.8366 545.232 71.8961 535.191 85.263C525.142 98.6406 514.58 111.221 505.901 119.565C501.537 123.76 497.786 126.75 494.901 128.278C493.451 129.046 492.409 129.341 491.729 129.366C491.151 129.388 490.969 129.226 490.842 129.066L464.815 96.1127C464.628 95.8757 464.493 95.5562 464.599 94.8752C464.72 94.1021 465.145 93.0004 466.051 91.5529C467.858 88.6661 471.138 85.09 475.62 81.0531C484.536 73.0222 497.638 63.6694 511.407 55.0061C525.164 46.3502 539.475 38.4512 550.762 33.3056C556.42 30.7262 561.231 28.88 564.794 27.9582C566.588 27.4942 567.941 27.2981 568.872 27.3097C569.178 27.3136 569.389 27.3395 569.528 27.3657Z" fill="#8F8F8F" stroke="#7E7C7C" stroke-width="5"/>
<path d="M27.3687 30.6232C27.5172 30.5907 27.7478 30.5544 28.0904 30.543C29.0514 30.5112 30.4417 30.6782 32.2754 31.0965C35.9197 31.9279 40.8429 33.6409 46.635 36.0528C58.1918 40.8651 72.8655 48.3117 86.9996 56.4958C101.145 64.6863 114.641 73.5528 123.882 81.1849C128.529 85.022 131.951 88.4277 133.868 91.1801C134.832 92.5641 135.287 93.6032 135.428 94.3103C135.549 94.9111 135.43 95.1303 135.304 95.2909L109.277 128.244C109.09 128.481 108.817 128.677 108.168 128.685C107.43 128.693 106.335 128.439 104.836 127.743C101.846 126.353 97.9618 123.542 93.4415 119.554C84.449 111.62 73.5041 99.5356 63.0828 86.6344C52.6704 73.744 42.8633 60.1427 36.1335 49.2265C32.76 43.7545 30.2132 39.0416 28.7401 35.4737C27.9985 33.6776 27.5816 32.2954 27.4309 31.3198C27.3813 30.9993 27.3688 30.774 27.3687 30.6232Z" fill="#8F8F8F" stroke="#7E7C7C" stroke-width="5"/>
<path d="M557.731 14.5C568.764 14.5002 577.962 24.0481 577.962 36.1494C577.962 48.2509 568.764 57.7996 557.731 57.7998C546.699 57.7998 537.5 48.251 537.5 36.1494C537.5 24.048 546.699 14.5 557.731 14.5Z" fill="#D9D9D9" stroke="#D0D0D0" stroke-width="5"/>
<path d="M35.7314 14.5C46.7641 14.5002 55.9617 24.0481 55.9619 36.1494C55.9619 48.2509 46.7642 57.7996 35.7314 57.7998C24.6985 57.7998 15.5 48.251 15.5 36.1494C15.5002 24.048 24.6987 14.5 35.7314 14.5Z" fill="#D9D9D9" stroke="#D0D0D0" stroke-width="5"/>
<rect x="-0.316617" y="3.62549" width="164.438" height="111.639" rx="19.5" transform="matrix(0.619805 0.784756 -0.746452 0.665439 439.142 30.1393)" fill="#D9D9D9" stroke="#D0D0D0" stroke-width="5"/>
<rect x="3.41564" y="-0.298291" width="164.438" height="111.639" rx="19.5" transform="matrix(0.619805 -0.784756 0.746452 0.665439 59.77 164.226)" fill="#D9D9D9" stroke="#D0D0D0" stroke-width="5"/>
<rect x="126.441" y="87.543" width="345.229" height="315.457" rx="70" fill="url(#paint0_linear_95_1761)"/>
<rect x="146.332" y="107.165" width="305.449" height="276.213" rx="50" fill="#363D5A"/>
<rect x="160.5" y="124.5" width="279.139" height="241.026" rx="42.5" fill="#1A1B1E" stroke="#19151E" stroke-width="5"/>
<rect x="241.518" y="303.382" width="22.6404" height="21.3104" transform="rotate(-90 241.518 303.382)" fill="#D9D9D9"/>
<rect x="336.704" y="303.382" width="22.6404" height="21.3104" transform="rotate(-90 336.704 303.382)" fill="#D9D9D9"/>
<rect x="337.107" y="195.15" width="59" height="20" fill="#D9D9D9"/>
<rect x="396.266" y="235.46" width="20" height="20" transform="rotate(-90 396.266 235.46)" fill="#D9D9D9"/>
<rect x="317.266" y="235.46" width="20" height="20" transform="rotate(-90 317.266 235.46)" fill="#D9D9D9"/>
<rect x="263.267" y="235.46" width="20" height="20" transform="rotate(-90 263.267 235.46)" fill="#D9D9D9"/>
<rect x="183.267" y="235.46" width="20" height="20" transform="rotate(-90 183.267 235.46)" fill="#D9D9D9"/>
<rect x="262.828" y="303.382" width="73.8761" height="24.1498" fill="#D9D9D9"/>
<rect x="203.107" y="195.15" width="60" height="20" fill="#D9D9D9"/>
<rect x="347" y="214" width="18" height="40" transform="rotate(-90 347 214)" fill="#D9D9D9"/>
<rect x="213" y="214" width="18" height="40" transform="rotate(-90 213 214)" fill="#D9D9D9"/>
<defs>
<linearGradient id="paint0_linear_95_1761" x1="299" y1="-285.5" x2="299" y2="708.5" gradientUnits="userSpaceOnUse">
<stop offset="0.120192" stop-color="#8CB2FF"/>
<stop offset="0.543369" stop-color="#40445A"/>
<stop offset="0.923077" stop-color="#8CB2FF"/>
</linearGradient>
</defs>
</svg>
